<?xml version="1.0" standalone="no"?>
<!DOCTYPE svg PUBLIC "-//W3C//DTD SVG 20010904//EN"
 "http://www.w3.org/TR/2001/REC-SVG-20010904/DTD/svg10.dtd">
<svg version="1.0" xmlns="http://www.w3.org/2000/svg"
 width="2048.000000pt" height="2048.000000pt" viewBox="0 0 2048.000000 2048.000000"
 preserveAspectRatio="xMidYMid meet">
<metadata>
Created by potrace 1.11, written by Peter Selinger 2001-2013
</metadata>
<g transform="translate(0.000000,2048.000000) scale(0.100000,-0.100000)"
fill="#000000" stroke="none">
<path d="M2730 20473 c8 -4 20 -13 27 -22 10 -13 12 -13 13 -2 0 8 3 11 7 8 3
-4 12 -2 18 3 15 13 47 2 42 -14 -3 -6 -10 -10 -16 -8 -7 1 -10 -2 -6 -8 4 -7
13 -7 26 1 17 9 20 7 17 -7 -2 -9 3 -19 11 -22 10 -3 12 0 8 12 -5 11 -1 16
12 16 11 0 21 -6 24 -12 3 -10 7 -10 20 1 23 19 21 5 -2 -18 -14 -14 -21 -16
-25 -8 -2 7 -5 4 -5 -5 -1 -10 5 -18 12 -18 7 0 31 -9 53 -19 40 -20 51 -20
39 -2 -3 6 -17 11 -29 11 -13 0 -29 7 -36 15 -15 18 1 20 19 3 10 -11 11 -10
6 2 -4 11 1 16 15 16 11 0 20 -4 20 -9 0 -4 8 -7 18 -5 9 2 16 -3 15 -9 -2 -7
3 -13 10 -14 6 0 3 -4 -8 -9 -16 -7 -13 -9 16 -9 29 -1 36 -5 35 -18 0 -10 -5
-21 -9 -24 -5 -3 -2 -9 6 -12 11 -4 15 0 12 14 -2 11 0 17 6 14 5 -4 9 -12 9
-20 0 -8 5 -17 10 -20 7 -4 9 2 5 18 -4 14 -3 27 2 30 5 3 9 -4 9 -16 -1 -16
6 -23 23 -25 18 -3 21 -6 10 -12 -7 -5 -10 -12 -6 -16 3 -4 13 -1 22 6 9 7 18
10 22 6 3 -3 0 -6 -7 -6 -7 0 -10 -3 -7 -6 4 -4 13 -1 22 6 19 15 30 7 21 -16
-4 -10 -12 -14 -22 -10 -11 4 -14 1 -12 -12 3 -12 12 -16 31 -14 26 3 31 -4
28 -38 -2 -13 -1 -13 8 0 5 8 8 17 5 22 -2 4 4 11 14 17 14 7 19 6 19 -4 0 -8
-5 -12 -10 -8 -5 3 -4 -4 2 -16 8 -14 8 -21 1 -21 -5 0 -10 -4 -10 -9 0 -5 8
-8 18 -6 9 1 22 -2 29 -7 7 -6 14 -5 19 3 5 8 3 9 -6 4 -9 -5 -11 -4 -6 4 6 9
11 9 23 -1 9 -7 23 -13 32 -13 16 0 17 -4 20 -45 1 -21 35 -29 45 -11 4 5 -3
7 -14 4 -12 -3 -20 0 -20 6 0 7 5 9 10 6 6 -4 17 -1 25 5 12 10 13 7 9 -15 -3
-19 -1 -26 8 -22 7 2 12 14 11 26 -2 11 2 21 8 21 7 0 9 -11 7 -25 -3 -14 -1
-25 3 -25 5 0 9 7 9 15 0 8 4 15 9 15 5 0 8 -8 6 -17 -1 -10 2 -23 7 -29 5 -8
3 -17 -6 -27 -14 -13 -14 -16 0 -21 8 -3 13 -2 10 3 -3 5 1 11 9 15 8 3 15 13
15 23 1 14 6 12 26 -11 25 -28 25 -30 8 -43 -15 -11 -20 -11 -23 -1 -2 6 1 14
8 16 15 5 14 23 -1 19 -21 -4 -27 -20 -17 -39 8 -15 14 -16 30 -7 11 6 27 8
34 5 8 -3 16 3 19 12 3 9 4 0 1 -20 -3 -31 -1 -36 16 -35 10 1 19 5 19 10 0 4
5 5 10 2 6 -4 8 -11 5 -16 -4 -5 -1 -9 5 -9 6 0 9 -4 6 -8 -2 -4 4 -8 14 -9
12 -1 16 4 13 16 -3 13 2 20 19 24 22 6 22 5 4 -8 -16 -12 -17 -17 -6 -30 7
-9 20 -13 29 -10 11 4 10 1 -4 -15 -15 -17 -16 -20 -2 -20 8 0 18 6 20 13 3 6
6 2 6 -10 1 -12 -7 -27 -16 -32 -10 -6 -14 -11 -10 -11 4 0 20 8 35 17 l27 17
-20 -24 c-11 -14 -13 -20 -5 -15 8 6 29 10 45 10 26 0 30 -3 27 -25 -4 -21 -2
-22 12 -11 9 7 13 18 9 24 -3 6 -1 7 6 3 6 -4 9 -11 6 -16 -3 -4 2 -11 11 -14
10 -4 13 -13 9 -27 -5 -15 -4 -19 4 -15 6 4 11 2 11 -5 0 -7 7 -4 16 7 12 14
14 15 11 3 -3 -9 3 -26 14 -38 11 -12 17 -26 14 -31 -3 -6 -2 -10 4 -10 5 0
12 6 14 13 4 9 8 8 16 -3 7 -10 6 -19 -2 -30 -8 -10 -5 -9 9 3 11 9 27 17 35
17 12 0 11 -2 -1 -10 -12 -8 -9 -10 13 -10 15 0 27 -5 27 -11 0 -8 5 -8 15 1
17 14 16 16 19 -34 3 -33 1 -36 -9 -22 -11 15 -13 15 -19 1 -3 -9 -2 -13 3
-10 5 3 12 1 16 -5 4 -6 16 -3 33 8 18 12 24 13 18 3 -7 -11 -3 -13 18 -9 19
4 24 2 17 -5 -17 -17 6 -49 31 -41 17 5 19 3 13 -15 -9 -29 3 -45 21 -30 8 6
17 10 19 7 10 -9 -7 -38 -22 -38 -8 0 -11 -5 -8 -10 4 -6 10 -8 15 -5 5 3 11
1 15 -4 3 -5 14 -8 25 -6 17 3 19 0 14 -21 -4 -14 -2 -24 5 -24 6 0 8 7 4 17
-5 11 -3 14 6 8 10 -6 11 -2 7 16 -6 21 -6 22 5 5 8 -13 8 -24 0 -43 -15 -32
-13 -43 2 -18 7 11 18 21 26 23 12 3 12 0 1 -13 -11 -13 -10 -15 4 -9 21 8 21
-5 -1 -23 -17 -13 -17 -14 2 -9 11 3 36 -4 55 -15 19 -11 27 -18 18 -15 -12 3
-15 1 -12 -9 3 -8 12 -11 20 -8 8 3 14 0 14 -6 0 -6 -8 -11 -17 -12 -11 0 -13
-3 -6 -6 7 -2 23 3 35 11 12 9 17 16 10 16 -6 0 -12 4 -12 8 0 5 7 9 15 9 8 0
12 -5 8 -10 -3 -5 4 -6 18 -3 l24 7 -23 -14 c-12 -7 -19 -17 -15 -22 4 -4 3
-5 -3 -2 -7 4 -14 -1 -16 -11 -4 -13 1 -18 16 -18 12 0 24 4 28 10 3 5 16 10
28 11 l22 2 -21 -16 c-27 -20 -17 -35 13 -19 19 10 20 10 7 -6 -8 -9 -10 -16
-5 -15 21 4 28 -2 14 -11 -12 -8 -9 -10 12 -10 15 0 30 -5 34 -12 4 -7 3 -8
-4 -4 -7 4 -12 2 -12 -3 0 -6 5 -11 11 -11 6 0 9 -9 6 -20 -3 -13 -1 -18 6
-13 6 4 8 -1 5 -14 -4 -17 -2 -19 15 -15 12 3 18 1 14 -5 -4 -6 5 -15 19 -22
35 -15 43 -13 19 5 l-20 16 20 -4 c14 -2 19 2 17 12 -2 8 0 11 4 7 16 -15 12
-41 -7 -55 -28 -19 -24 -27 16 -28 19 0 35 3 35 8 0 4 5 8 11 8 6 0 7 -5 2
-12 -8 -14 -11 -68 -3 -68 8 1 40 27 37 31 -1 2 3 -1 8 -7 6 -6 17 -14 25 -17
10 -5 8 -6 -5 -4 -11 2 -26 -2 -33 -10 -7 -7 -8 -13 -3 -13 6 0 9 -6 7 -12 -1
-7 -1 -9 2 -5 2 4 11 2 20 -5 14 -10 14 -9 -1 8 -14 17 -14 21 -3 21 8 0 14
-3 13 -6 -1 -3 4 -15 10 -26 6 -11 10 -31 8 -45 -3 -30 12 -54 37 -58 12 -2
16 2 12 13 -4 10 -2 14 8 10 9 -4 14 -16 13 -28 -2 -18 3 -23 24 -25 14 -1 21
2 15 6 -7 4 -8 15 -3 27 4 11 8 17 10 13 1 -5 3 -12 4 -18 1 -5 3 -22 4 -36 1
-19 5 -25 16 -20 8 3 15 1 15 -5 0 -6 5 -7 12 -3 7 4 8 3 4 -4 -4 -6 -14 -8
-24 -5 -18 7 -17 5 12 -17 11 -8 17 -10 14 -5 -8 13 19 38 27 26 3 -5 0 -13
-6 -17 -9 -5 -8 -10 3 -18 8 -6 20 -21 27 -33 10 -19 9 -23 -4 -23 -8 0 -15
-4 -15 -10 0 -14 23 -12 39 3 10 8 12 9 7 0 -4 -7 2 -17 13 -22 13 -7 17 -17
14 -31 -5 -18 3 -24 28 -22 3 1 6 -5 6 -13 0 -8 -4 -12 -9 -9 -14 9 -9 -14 7
-30 9 -8 16 -19 17 -23 3 -30 25 -46 25 -19 0 8 -5 14 -11 13 -5 -1 -10 3 -11
8 0 6 -4 16 -8 23 -5 6 -7 12 -5 13 2 0 14 3 28 5 23 4 23 4 6 -9 -16 -12 -16
-14 -2 -26 9 -8 16 -22 16 -32 0 -11 5 -19 11 -19 6 0 9 9 6 20 -3 11 2 25 12
32 14 12 15 11 2 -4 -12 -16 -9 -22 10 -20 4 1 15 -9 25 -21 13 -15 14 -18 3
-9 -14 10 -18 10 -23 -5 -4 -10 -1 -22 6 -28 7 -5 13 -21 13 -35 0 -20 5 -25
22 -23 11 1 27 -5 35 -14 12 -15 10 -16 -17 -9 -22 5 -27 4 -19 -4 6 -6 24
-13 39 -16 38 -7 45 -12 39 -28 -3 -8 0 -17 6 -21 8 -5 7 -11 -2 -23 -10 -12
-10 -14 0 -8 6 4 12 2 12 -3 0 -6 5 -11 11 -11 5 0 7 5 4 10 -3 6 -1 10 5 10
7 0 10 -6 7 -14 -5 -13 30 -55 40 -48 3 2 8 0 11 -4 4 -4 1 -4 -5 0 -8 4 -13
1 -13 -7 0 -8 9 -17 20 -20 14 -4 18 -11 15 -24 -3 -10 1 -5 8 11 11 22 15 25
20 12 4 -9 1 -16 -5 -16 -7 0 -3 -7 8 -16 10 -8 14 -13 8 -10 -6 3 -16 -6 -22
-19 -9 -20 -9 -23 3 -18 8 3 13 8 10 12 -2 4 1 8 8 8 7 0 18 2 26 4 9 2 16 -4
18 -16 2 -17 2 -17 -5 -3 -8 20 -25 12 -35 -16 -6 -15 -5 -16 6 -8 19 16 46
-3 29 -20 -18 -18 -15 -28 8 -28 18 0 25 -15 21 -42 0 -4 7 -4 17 -1 15 6 15
5 3 -11 -8 -9 -10 -16 -5 -14 5 1 19 -3 32 -10 l23 -13 -22 -18 c-20 -16 -20
-18 -5 -24 9 -4 15 -3 12 2 -3 5 3 11 13 14 15 4 18 1 14 -12 -4 -9 -3 -13 1
-9 10 9 46 -23 39 -35 -3 -5 1 -14 8 -19 11 -8 10 -9 -3 -4 -10 3 -20 1 -23
-4 -4 -6 1 -10 9 -10 9 0 16 -7 16 -15 0 -18 29 -35 60 -35 6 0 10 -9 10 -20
0 -11 5 -20 11 -20 5 0 7 4 4 10 -3 5 0 7 8 4 8 -3 59 6 114 20 64 17 313 52
699 100 592 74 606 75 1194 106 350 19 789 36 1065 41 1183 22 2555 12 3185
-21 1096 -59 1030 -54 1635 -130 l570 -72 480 -118 480 -119 390 -173 390
-173 285 -219 c157 -120 299 -232 316 -250 17 -17 130 -159 250 -316 l219
-285 173 -390 174 -390 118 -480 118 -480 71 -568 c70 -557 72 -579 107 -1200
32 -558 37 -730 48 -1472 8 -563 9 -1096 3 -1615 -7 -700 -12 -846 -47 -1505
l-39 -731 -71 -564 -72 -565 -119 -486 -119 -486 -173 -389 -173 -389 -226
-295 c-124 -162 -239 -307 -255 -321 -15 -14 -154 -122 -308 -239 l-280 -214
-389 -173 -390 -173 -485 -119 -486 -119 -565 -71 -564 -72 -721 -39 c-642
-35 -798 -40 -1445 -47 -807 -9 -733 -9 -1685 1 -610 7 -772 12 -1400 46
l-710 39 -560 71 -560 70 -479 116 c-533 130 -434 95 -1037 362 l-226 100
-308 235 -307 235 -237 309 -236 310 -172 389 -172 389 -115 470 c-111 449
-118 484 -156 775 -22 168 -42 315 -44 328 -4 25 -16 42 -16 22 0 -10 -3 -10
-14 0 -13 10 -14 7 -10 -15 3 -20 1 -25 -8 -19 -7 5 -18 9 -25 10 -13 2 -26
-23 -17 -37 3 -5 0 -9 -5 -9 -6 0 -11 6 -11 13 0 8 -11 13 -27 12 -21 0 -29
-6 -33 -25 -3 -17 -11 -25 -25 -24 -11 0 -26 -4 -32 -9 -9 -6 -13 -5 -13 2 0
7 -8 11 -17 9 -10 -1 -23 0 -28 4 -6 4 -17 2 -25 -3 -12 -8 -11 -9 5 -7 11 2
19 -2 18 -8 -1 -6 4 -11 12 -11 8 0 12 4 9 9 -3 4 -1 8 4 8 6 0 13 -7 16 -16
3 -8 2 -12 -4 -9 -6 3 -10 1 -10 -5 0 -8 -6 -8 -21 0 -31 17 -59 20 -59 7 0
-7 -4 -6 -10 3 -5 8 -12 11 -16 7 -12 -12 -1 -18 63 -31 28 -5 22 -14 -6 -10
-25 4 -30 2 -25 -10 4 -11 1 -16 -10 -16 -9 0 -16 -5 -16 -11 0 -5 -5 -7 -11
-3 -7 4 -7 9 -2 13 13 8 13 41 0 41 -5 0 -7 -7 -4 -14 4 -10 1 -13 -9 -9 -7 3
-14 0 -14 -6 0 -7 -8 -11 -17 -9 -11 2 -19 -5 -21 -17 -2 -16 -1 -17 7 -5 8
12 10 11 9 -6 -1 -11 -8 -21 -15 -21 -6 0 -10 4 -7 9 3 4 0 8 -6 8 -6 0 -8 5
-5 10 3 6 -1 10 -9 10 -15 0 -20 -11 -17 -37 1 -6 -3 -14 -9 -18 -5 -3 -7 0
-4 8 3 8 1 18 -5 22 -6 3 -11 1 -11 -6 0 -7 -8 -5 -20 6 -11 10 -23 15 -27 12
-3 -4 -2 -7 4 -7 5 0 10 -7 10 -15 0 -10 -4 -12 -12 -5 -7 5 -16 6 -20 2 -5
-4 -5 1 -2 10 4 12 2 15 -9 11 -13 -5 -13 -9 2 -30 12 -19 13 -28 4 -37 -6 -6
-11 -6 -10 -1 5 25 0 37 -13 28 -6 -6 -22 -9 -34 -8 -14 1 -23 -4 -23 -13 0
-8 -6 -12 -15 -8 -18 7 -20 -5 -2 -23 10 -10 8 -11 -8 -5 -11 4 -17 3 -13 -1
8 -9 -32 -34 -44 -28 -15 8 14 52 30 46 10 -4 13 -2 8 5 -4 7 -17 10 -33 6
-16 -4 -24 -3 -20 3 3 5 0 10 -8 10 -20 0 -19 -7 3 -23 16 -13 16 -13 -1 -14
-10 0 -15 -4 -12 -10 3 -5 2 -10 -4 -10 -5 0 -12 8 -14 18 -4 16 -5 16 -6 -1
-1 -11 -6 -15 -13 -11 -7 4 -8 3 -4 -5 4 -6 11 -9 16 -6 5 3 11 1 14 -4 3 -5
-8 -11 -25 -15 -21 -4 -28 -10 -23 -18 4 -7 3 -9 -1 -5 -13 12 -15 37 -2 37 5
0 7 3 4 7 -9 8 -47 -26 -47 -43 0 -7 -4 -16 -10 -19 -6 -3 -7 1 -4 9 3 9 1 16
-5 16 -6 0 -8 8 -6 18 3 9 -1 4 -9 -13 -8 -16 -15 -26 -16 -21 0 5 -7 3 -15
-4 -8 -7 -15 -9 -15 -5 0 4 -7 2 -15 -5 -10 -9 -15 -9 -15 -1 0 10 13 15 32
12 3 0 11 12 16 28 8 21 7 28 -4 28 -7 0 -11 -4 -8 -9 6 -10 -14 -38 -27 -38
-5 0 -9 7 -9 16 0 9 5 12 12 8 7 -5 8 -3 3 5 -5 9 -12 7 -26 -8 -23 -25 -23
-29 -2 -55 18 -21 18 -21 -4 -2 -17 14 -23 15 -23 6 0 -11 -3 -11 -13 1 -6 8
-11 12 -10 10 2 -2 -3 -11 -10 -19 -6 -9 -7 -13 -2 -10 6 4 17 3 25 -2 11 -7
9 -9 -8 -7 -21 1 -54 37 -35 37 9 0 -19 20 -28 20 -4 0 -10 -7 -13 -16 -4 -11
-2 -15 8 -11 8 3 16 0 19 -6 5 -16 -2 -37 -14 -37 -4 0 -6 7 -3 15 7 18 0 19
-27 5 -15 -8 -19 -7 -19 4 0 20 -17 29 -26 15 -4 -7 -3 -10 2 -6 5 3 14 -5 20
-18 10 -20 9 -22 -9 -17 -14 3 -18 1 -13 -6 4 -7 2 -12 -3 -12 -6 0 -11 3 -12
8 -4 46 -10 54 -29 42 -13 -8 -13 -10 1 -10 11 0 16 -9 15 -29 -1 -16 -4 -33
-8 -37 -4 -4 -6 3 -3 15 3 18 -1 21 -33 22 -20 0 -44 2 -54 4 -10 2 -19 -5
-22 -19 -5 -16 -8 -18 -15 -8 -6 10 -10 8 -15 -11 -4 -19 -11 -24 -28 -21 -13
2 -17 2 -10 -2 6 -3 12 -12 12 -20 0 -11 -4 -10 -20 3 -17 15 -18 19 -6 32 22
25 -18 51 -41 28 -4 -5 -3 -7 2 -5 6 2 11 -2 13 -7 1 -6 -1 -10 -5 -10 -5 0
-22 -10 -39 -22 -31 -22 -32 -22 -37 -3 -3 11 -11 20 -19 20 -8 0 -9 -3 -3 -8
20 -14 16 -32 -7 -28 -21 3 -53 -16 -42 -27 2 -2 -3 -10 -13 -18 -14 -12 -16
-12 -8 0 6 11 4 13 -9 8 -10 -4 -20 -7 -22 -7 -3 0 -2 -4 1 -10 3 -5 1 -10 -5
-10 -7 0 -9 7 -6 16 3 8 2 12 -3 9 -5 -3 -12 -1 -15 4 -4 5 -2 12 3 15 5 4 12
2 16 -4 3 -5 10 -10 16 -10 5 0 4 9 -3 19 -8 13 -16 17 -24 11 -6 -6 -14 -8
-17 -5 -4 3 -5 2 -3 -1 2 -3 -1 -20 -6 -37 -10 -27 -12 -29 -19 -11 -6 18 -8
17 -18 -6 l-11 -25 3 27 c3 16 0 28 -5 28 -5 0 -6 5 -2 12 4 7 3 8 -5 4 -6 -4
-9 -11 -6 -16 6 -10 -14 -18 -42 -15 -16 1 -20 -3 -17 -19 3 -21 3 -21 -11 -2
-8 11 -15 23 -15 27 0 11 -56 5 -72 -9 -9 -7 -24 -9 -33 -5 -15 5 -17 2 -12
-16 3 -15 1 -21 -6 -18 -7 3 -11 11 -9 18 1 9 -3 8 -11 -3 -8 -10 -20 -18 -26
-18 -7 0 -9 -4 -6 -10 3 -5 1 -10 -4 -10 -18 0 -12 21 11 39 18 15 19 19 5 24
-12 4 -14 2 -10 -10 4 -10 2 -14 -5 -9 -6 3 -13 2 -17 -3 -3 -7 -15 -7 -30 -1
-20 8 -27 6 -37 -13 -6 -12 -10 -24 -9 -27 1 -2 -2 -6 -8 -8 -6 -2 -14 3 -17
12 -3 9 -14 16 -23 15 -10 0 -11 -2 -3 -6 6 -2 12 -9 12 -14 0 -6 -7 -6 -19 0
-21 12 -32 5 -25 -13 3 -7 -2 -13 -10 -13 -8 0 -12 5 -9 10 4 6 0 8 -9 5 -8
-4 -15 0 -15 8 0 7 4 11 8 9 4 -3 9 2 13 10 7 20 -8 19 -25 -1 -7 -8 -21 -13
-31 -11 -12 4 -27 -6 -45 -29 -14 -19 -28 -32 -31 -29 -3 3 0 11 6 17 18 18
14 30 -6 19 -11 -6 -24 -6 -33 0 -20 12 -37 11 -19 -2 11 -8 12 -12 3 -16 -7
-2 -13 -9 -13 -14 0 -6 5 -7 12 -3 7 5 8 3 3 -6 -6 -10 -12 -8 -24 6 -9 11
-27 28 -40 39 l-24 20 12 -22 c6 -13 19 -23 29 -24 10 0 12 -3 4 -6 -6 -2 -10
-10 -6 -16 3 -7 -1 -5 -8 3 -7 8 -25 24 -38 35 l-25 20 17 -20 c17 -20 16 -22
-13 -49 -16 -16 -33 -26 -36 -22 -4 3 -1 6 7 6 10 0 10 4 -1 17 -12 14 -12 16
0 8 9 -5 12 -4 8 3 -4 5 -18 9 -32 7 -16 -1 -25 3 -25 11 0 20 -13 17 -40 -8
-15 -14 -19 -23 -11 -26 7 -2 18 3 24 13 12 15 13 14 13 -4 0 -15 -7 -21 -23
-21 l-23 0 0 -3020 0 -3020 10240 0 10240 0 0 10240 0 10240 -8795 0 c-8788 0
-8795 0 -8795 -20 0 -11 -4 -20 -9 -20 -5 0 -7 10 -4 23 4 18 3 19 -6 7 -7
-10 -11 -11 -11 -3 0 13 -68 12 -89 -2 -6 -3 -11 -1 -11 4 0 6 -10 11 -22 10
-16 0 -18 -2 -8 -6z m532 -244 c-4 -4 -18 -10 -32 -13 -25 -6 -25 -6 -2 5 12
7 22 19 22 28 0 14 2 14 10 1 5 -8 6 -18 2 -21z m73 -37 c2 -11 -2 -26 -10
-32 -10 -9 -13 -8 -11 4 1 9 5 18 8 22 4 3 4 13 1 22 -4 10 -3 14 1 11 4 -4 8
-16 11 -27z m58 -37 c-3 -9 -8 -14 -10 -11 -3 3 -2 9 2 15 9 16 15 13 8 -4z
m53 -14 c-4 -5 -1 -11 6 -13 6 -2 8 -9 4 -16 -3 -6 -14 -8 -22 -5 -13 5 -13 7
-2 14 7 5 9 9 5 9 -9 0 1 20 9 20 3 0 3 -4 0 -9z m239 -163 c-3 -12 -10 -26
-16 -32 -8 -8 -8 -5 0 12 6 12 9 22 6 22 -4 0 -3 5 0 10 10 16 14 11 10 -12z
m48 -29 c-4 -15 -9 -17 -17 -9 -8 8 -7 13 4 20 8 5 16 10 17 10 0 0 -1 -9 -4
-21z m117 -63 c0 -2 -6 -9 -13 -15 -10 -8 -14 -7 -14 4 0 8 6 15 14 15 7 0 13
-2 13 -4z m219 -194 c-1 -15 -2 -15 -6 1 -2 9 -9 14 -15 11 -7 -4 -8 -2 -4 5
10 15 26 4 25 -17z m276 -251 c-3 -6 -11 -8 -17 -5 -6 4 -5 9 3 15 16 10 23 4
14 -10z m75 -21 c6 -11 8 -20 6 -20 -3 0 -10 9 -16 20 -6 11 -8 20 -6 20 3 0
10 -9 16 -20z m60 -54 c0 -2 -8 -10 -17 -17 -16 -13 -17 -12 -4 4 13 16 21 21
21 13z m390 -360 c0 -3 -4 -8 -10 -11 -5 -3 -10 -1 -10 4 0 6 5 11 10 11 6 0
10 -2 10 -4z m100 -121 c0 -7 6 -15 13 -18 8 -3 4 -11 -12 -25 -26 -24 -50
-20 -26 4 8 9 15 20 15 27 0 6 -6 3 -12 -6 -12 -16 -13 -15 -13 6 0 15 6 24
18 24 9 1 17 -4 17 -12z m37 -51 c-3 -3 -12 -4 -19 -1 -8 3 -5 6 6 6 11 1 17
-2 13 -5z m4 -37 c-10 -9 -11 -8 -5 6 3 10 9 15 12 12 3 -3 0 -11 -7 -18z m59
-7 c0 -5 -2 -10 -4 -10 -3 0 -8 5 -11 10 -3 6 -1 10 4 10 6 0 11 -4 11 -10z
m350 -423 c0 -8 -3 -8 -9 2 -6 9 -11 10 -15 2 -4 -6 -14 -11 -22 -11 -8 0 -12
5 -9 10 4 6 10 8 15 5 5 -3 11 -1 15 5 8 13 25 3 25 -13z m83 -110 c3 -8 0
-14 -7 -14 -7 0 -13 6 -13 14 0 7 4 13 8 13 4 0 9 -6 12 -13z m57 -41 c0 -2
-9 -2 -20 1 -11 3 -20 9 -20 15 0 5 9 4 20 -2 11 -6 20 -12 20 -14z m8 -41
c-3 -3 -9 2 -12 12 -6 14 -5 15 5 6 7 -7 10 -15 7 -18z m282 -419 c0 -3 -4 -8
-10 -11 -5 -3 -10 -1 -10 4 0 6 5 11 10 11 6 0 10 -2 10 -4z m-3210 -11006 c0
-5 -5 -10 -11 -10 -5 0 -7 5 -4 10 3 6 8 10 11 10 2 0 4 -4 4 -10z m-1270
-468 c3 -3 -5 -1 -17 2 -14 5 -23 3 -23 -3 0 -6 -5 -11 -10 -11 -7 0 -7 7 0
21 11 20 14 20 50 -9z m-148 -4 c-7 -7 -13 -21 -13 -32 -1 -17 -2 -18 -6 -3
-2 9 -9 17 -14 17 -6 0 -7 5 -4 10 4 6 10 8 15 5 5 -3 11 -1 15 5 3 5 9 10 13
10 3 0 1 -5 -6 -12z m-453 -106 c1 10 9 16 20 15 11 0 17 -5 14 -10 -3 -5 1
-13 8 -18 9 -7 5 -7 -13 -3 -23 5 -28 3 -28 -12 -1 -13 -5 -10 -14 11 -7 17
-11 34 -8 40 4 5 9 -1 13 -15 4 -15 7 -18 8 -8z m211 8 c0 -5 -5 -10 -11 -10
-5 0 -7 5 -4 10 3 6 8 10 11 10 2 0 4 -4 4 -10z m-250 -27 c0 -8 5 -11 10 -8
6 3 10 -1 10 -9 0 -22 -23 -10 -36 18 -9 20 -9 23 2 19 8 -3 14 -12 14 -20z
m-130 -4 c0 -5 -7 -9 -15 -9 -8 0 -14 -5 -12 -11 1 -6 -5 -14 -13 -16 -12 -4
-12 -3 -1 5 9 6 10 12 3 16 -18 11 -2 34 19 29 10 -3 19 -9 19 -14z m-192 -60
c-6 -4 -18 -1 -26 7 -11 11 -17 12 -28 3 -16 -13 -19 2 -3 18 8 8 19 6 39 -5
18 -10 24 -19 18 -23z m238 24 c-8 -8 -56 -11 -51 -3 3 4 16 8 30 8 14 0 24
-3 21 -5z m-126 -18 c-10 -12 -16 -13 -26 -4 -20 16 -18 19 12 19 22 0 25 -2
14 -15z"/>
<path d="M3055 20319 c-4 -6 -5 -12 -2 -15 2 -3 7 2 10 11 7 17 1 20 -8 4z"/>
<path d="M3495 20039 c-4 -6 -5 -12 -2 -15 2 -3 7 2 10 11 7 17 1 20 -8 4z"/>
<path d="M3910 19786 c0 -2 7 -9 15 -16 9 -7 15 -8 15 -2 0 5 -7 12 -15 16 -8
3 -15 4 -15 2z"/>
<path d="M4194 19562 c3 -6 1 -12 -6 -14 -8 -3 -7 -6 3 -10 9 -3 22 -3 29 2 9
6 7 11 -10 20 -12 7 -20 7 -16 2z"/>
<path d="M4215 19520 c-3 -5 -2 -10 4 -10 5 0 13 5 16 10 3 6 2 10 -4 10 -5 0
-13 -4 -16 -10z"/>
<path d="M4251 19497 c-8 -10 -7 -14 2 -14 8 0 14 6 14 14 0 7 -1 13 -2 13 -2
0 -8 -6 -14 -13z"/>
<path d="M4568 19203 c7 -3 16 -2 19 1 4 3 -2 6 -13 5 -11 0 -14 -3 -6 -6z"/>
<path d="M4607 19180 c3 -11 9 -20 15 -20 5 0 4 9 -2 20 -6 11 -12 20 -14 20
-2 0 -2 -9 1 -20z"/>
<path d="M4645 19160 c-3 -5 -1 -10 4 -10 6 0 11 5 11 10 0 6 -2 10 -4 10 -3
0 -8 -4 -11 -10z"/>
<path d="M4720 19046 c0 -2 7 -7 16 -10 8 -3 12 -2 9 4 -6 10 -25 14 -25 6z"/>
<path d="M4780 19003 c0 -6 5 -15 10 -18 6 -4 8 -11 5 -16 -10 -16 12 -10 26
8 12 14 12 16 -1 11 -8 -3 -20 2 -27 11 -8 10 -12 11 -13 4z"/>
<path d="M5007 18753 c-9 -8 12 -33 27 -33 6 0 3 5 -8 11 -15 9 -16 13 -5 20
8 5 9 9 3 9 -6 0 -14 -3 -17 -7z"/>
<path d="M5050 18700 c0 -5 5 -10 11 -10 5 0 7 5 4 10 -3 6 -8 10 -11 10 -2 0
-4 -4 -4 -10z"/>
<path d="M5095 18670 c-4 -12 -4 -24 -1 -27 3 -4 6 2 6 11 0 12 5 16 16 12 10
-4 14 -1 12 6 -7 21 -26 20 -33 -2z"/>
<path d="M5156 18602 c-3 -5 1 -9 9 -9 8 0 12 4 9 9 -3 4 -7 8 -9 8 -2 0 -6
-4 -9 -8z"/>
<path d="M5195 18521 c-3 -5 -2 -12 3 -15 5 -3 9 1 9 9 0 17 -3 19 -12 6z"/>
<path d="M5306 18398 c3 -4 9 -8 15 -8 5 0 9 4 9 8 0 5 -7 9 -15 9 -8 0 -12
-4 -9 -9z"/>
<path d="M5420 18279 c0 -5 5 -7 10 -4 6 3 10 8 10 11 0 2 -4 4 -10 4 -5 0
-10 -5 -10 -11z"/>
<path d="M5475 18190 c-8 -13 -1 -24 14 -19 6 3 7 10 2 18 -6 10 -10 10 -16 1z"/>
<path d="M5547 18089 c7 -7 15 -10 18 -7 3 3 -2 9 -12 12 -14 6 -15 5 -6 -5z"/>
<path d="M5620 18019 c0 -5 5 -7 10 -4 6 3 10 8 10 11 0 2 -4 4 -10 4 -5 0
-10 -5 -10 -11z"/>
<path d="M5740 17809 c7 -11 14 -19 16 -16 7 7 -7 37 -17 37 -6 0 -5 -9 1 -21z"/>
<path d="M5768 17823 c7 -3 16 -2 19 1 4 3 -2 6 -13 5 -11 0 -14 -3 -6 -6z"/>
<path d="M5775 17740 c-3 -5 -1 -10 4 -10 6 0 11 5 11 10 0 6 -2 10 -4 10 -3
0 -8 -4 -11 -10z"/>
<path d="M5835 17710 c3 -6 1 -10 -5 -10 -6 0 -9 -4 -5 -10 6 -10 35 -2 35 10
0 4 -7 11 -16 14 -8 3 -12 2 -9 -4z"/>
<path d="M14610 15806 c-306 -65 -564 -269 -685 -542 -81 -182 -106 -399 -67
-586 21 -102 68 -221 124 -316 42 -71 214 -246 293 -297 190 -124 448 -179
663 -141 392 68 679 330 784 713 17 62 21 108 22 228 1 181 -18 267 -94 420
-121 247 -348 436 -605 506 -102 27 -337 35 -435 15z"/>
<path d="M9950 14334 c-19 -2 -84 -9 -145 -15 -370 -37 -864 -164 -1160 -300
-342 -156 -538 -265 -774 -432 -293 -207 -643 -539 -839 -797 -23 -30 -50 -64
-59 -74 -10 -11 -13 -16 -6 -12 6 3 15 1 19 -6 4 -7 4 -10 -1 -6 -13 12 -46
-12 -43 -30 2 -10 -3 -16 -10 -14 -8 1 -11 -2 -7 -8 5 -8 12 -6 24 4 15 14 17
13 17 -4 0 -11 -6 -20 -12 -20 -7 0 -15 -6 -17 -12 -4 -10 -6 -10 -6 0 -1 6
-9 12 -18 12 -15 0 -15 -2 -4 -9 11 -7 10 -10 -5 -14 -13 -3 -10 -5 9 -6 17
-1 26 -5 22 -12 -4 -6 -13 -8 -19 -6 -7 3 -13 -1 -13 -9 0 -7 4 -11 9 -8 4 3
8 -2 8 -11 0 -12 -5 -15 -17 -11 -15 6 -14 4 2 -14 16 -18 17 -20 2 -14 -13 4
-17 1 -17 -15 0 -12 6 -21 14 -21 18 0 14 -28 -5 -42 -11 -8 -11 -9 4 -4 16 5
16 4 1 -19 -17 -26 -34 -33 -34 -13 0 6 -3 8 -7 4 -5 -4 -1 -13 7 -20 26 -20
41 -54 28 -62 -7 -4 -8 -3 -4 4 5 8 2 10 -8 6 -14 -5 -14 -8 0 -22 15 -14 15
-17 0 -27 -17 -13 -23 -30 -6 -20 6 3 15 3 21 -1 7 -4 -3 -20 -27 -42 -22 -19
-33 -32 -26 -28 6 4 12 2 12 -3 0 -6 8 -11 18 -12 14 0 14 -2 2 -7 -19 -9 -20
-30 -2 -41 11 -7 10 -9 -3 -14 -9 -4 -14 -3 -11 2 3 5 -1 11 -9 15 -20 7 -28
-9 -11 -23 8 -7 12 -21 8 -33 -4 -18 -2 -20 14 -14 15 6 16 4 7 -5 -14 -14
-44 -5 -39 13 1 7 1 10 -1 5 -3 -4 -10 -4 -16 0 -7 4 -5 -2 3 -12 14 -17 13
-18 -3 -12 -11 4 -16 3 -12 -3 3 -6 12 -10 18 -10 7 0 17 -8 24 -18 9 -15 8
-19 -3 -19 -7 0 -11 4 -9 8 3 4 -2 10 -11 13 -10 4 -13 2 -8 -6 5 -8 2 -9 -11
-4 -16 6 -16 4 -4 -10 11 -14 11 -18 -6 -30 -18 -13 -18 -15 -1 -33 11 -12 15
-27 12 -39 -8 -23 -36 -38 -36 -19 0 8 -4 6 -10 -3 -16 -24 -12 -30 13 -21 25
10 57 -2 44 -16 -5 -4 -12 -2 -16 5 -6 10 -11 10 -21 -3 -7 -8 -20 -15 -29
-15 -11 0 -16 -9 -16 -29 0 -16 2 -28 4 -26 2 3 13 -1 25 -7 11 -7 24 -11 28
-10 3 1 9 -5 12 -13 5 -13 2 -13 -24 0 -31 16 -54 20 -31 6 8 -5 11 -16 8 -26
-4 -9 -11 -14 -16 -10 -5 3 -12 1 -16 -5 -7 -11 4 -14 45 -12 19 1 21 -1 10
-8 -9 -6 -15 -26 -15 -56 0 -33 -5 -49 -15 -52 -13 -4 -13 -3 -2 11 11 13 10
15 -6 10 -11 -2 -23 1 -27 8 -5 8 -4 10 3 5 7 -4 12 -2 12 4 0 7 6 10 13 7 8
-3 12 7 13 29 1 27 -1 32 -12 23 -7 -6 -10 -18 -7 -26 4 -11 2 -14 -5 -9 -7 4
-12 2 -12 -5 0 -6 -8 -9 -20 -6 -22 6 -19 -5 13 -40 19 -21 19 -23 1 -40 -9
-10 -21 -18 -25 -18 -4 0 -11 -4 -16 -9 -5 -5 -3 -6 5 -2 19 11 14 -8 -9 -38
-11 -14 -25 -23 -31 -20 -7 5 -8 2 -3 -5 4 -7 16 -11 26 -8 11 3 19 1 19 -4 0
-5 -4 -9 -10 -9 -5 0 -10 -5 -10 -11 0 -5 5 -7 12 -3 7 4 8 3 4 -4 -4 -7 -14
-12 -22 -12 -8 0 -12 -5 -9 -10 4 -7 14 -6 28 1 13 6 7 -2 -13 -20 -26 -23
-30 -31 -17 -31 9 0 17 5 17 11 0 5 4 8 9 5 5 -4 12 0 14 6 3 8 6 5 6 -5 1
-10 -6 -25 -14 -33 -8 -9 -15 -12 -15 -7 0 5 -12 10 -26 11 -23 2 -24 0 -10
-14 19 -18 20 -30 4 -40 -7 -4 -8 -3 -4 4 4 7 2 12 -3 12 -6 0 -11 -6 -11 -14
0 -8 -6 -17 -12 -20 -7 -3 -3 -3 8 -1 24 6 41 -19 22 -31 -7 -4 -8 -3 -4 4 4
7 2 12 -3 12 -6 0 -11 -5 -11 -12 0 -6 -10 -3 -22 8 -13 12 -18 13 -13 4 15
-25 14 -40 -3 -41 -11 0 -12 -2 -4 -6 6 -2 9 -10 5 -16 -4 -7 0 -8 11 -4 10 4
23 7 29 7 7 0 6 4 -3 10 -8 5 -11 12 -7 16 4 4 15 0 24 -9 15 -15 14 -16 -10
-22 -15 -4 -24 -12 -20 -18 3 -6 1 -7 -6 -3 -8 5 -10 0 -7 -18 3 -14 -2 -30
-10 -37 -11 -9 -14 -8 -15 7 0 11 -3 14 -6 6 -3 -7 1 -20 9 -29 7 -10 8 -14 1
-10 -13 8 -13 -49 1 -73 7 -12 6 -13 -5 -2 -18 17 -30 15 -22 -3 6 -17 -22
-44 -47 -45 -9 0 -7 5 8 16 22 15 31 39 11 32 -6 -2 -9 -7 -7 -10 2 -4 -6 -14
-17 -22 -18 -13 -19 -15 -3 -21 10 -4 15 -11 12 -16 -3 -5 -10 -6 -16 -3 -7 4
-8 2 -4 -4 4 -7 2 -12 -3 -12 -6 0 -11 -5 -11 -11 0 -7 10 -5 25 5 29 19 35
20 35 5 0 -5 -4 -8 -9 -5 -10 7 -24 -41 -16 -54 3 -6 -1 -7 -9 -4 -9 3 -16 1
-16 -5 0 -6 -7 -8 -15 -5 -11 4 -15 0 -15 -16 0 -18 3 -20 13 -11 10 8 14 7
14 -3 0 -10 -9 -13 -28 -11 -16 2 -32 -1 -35 -7 -4 -6 -3 -8 4 -4 6 3 13 2 17
-4 3 -5 2 -10 -3 -10 -6 0 -8 -9 -5 -20 3 -12 -2 -29 -13 -42 -19 -20 -19 -21
6 -14 17 5 21 4 11 -2 -11 -8 -11 -10 0 -14 9 -3 8 -6 -5 -11 -10 -4 -15 -3
-11 3 3 6 -1 10 -10 10 -11 0 -15 -5 -12 -14 3 -8 -1 -17 -9 -20 -8 -3 -14
-12 -14 -20 0 -8 -8 -20 -17 -25 -10 -6 -12 -11 -6 -11 18 0 10 -37 -10 -53
-9 -7 -17 -29 -19 -50 -1 -21 -6 -41 -10 -43 -5 -3 -6 -10 -2 -15 4 -7 10 -6
18 0 9 7 12 4 13 -12 0 -12 -1 -16 -4 -10 -3 9 -10 10 -22 3 -10 -5 -22 -6
-26 -2 -4 4 -2 -3 4 -15 10 -19 9 -22 -4 -17 -9 4 -15 1 -15 -7 -1 -8 -6 -4
-13 7 -10 19 -14 20 -25 8 -8 -9 -9 -14 -2 -14 18 0 40 -27 39 -47 0 -10 -3
-13 -6 -5 -2 7 -12 16 -22 21 -13 7 -17 5 -18 -10 -1 -10 7 -24 18 -29 10 -6
18 -18 18 -28 -1 -15 -2 -15 -6 1 -3 10 -11 16 -18 13 -8 -3 -15 0 -18 7 -2 7
-6 5 -9 -4 -3 -9 -2 -22 3 -30 7 -12 10 -12 18 -1 6 11 9 9 13 -6 4 -16 2 -19
-10 -15 -11 5 -13 2 -8 -8 4 -8 -5 -1 -20 16 -15 16 -25 23 -22 15 2 -8 -4
-21 -14 -30 -14 -11 -15 -19 -7 -30 9 -13 10 -12 5 2 -3 11 2 22 15 29 19 9
20 8 14 -10 -3 -11 -9 -33 -11 -48 -3 -15 -8 -30 -11 -33 -3 -3 -3 5 0 18 3
15 1 22 -6 19 -37 -12 7 -493 74 -797 158 -723 485 -1359 985 -1912 237 -262
534 -508 863 -716 141 -89 486 -263 636 -321 563 -220 1105 -312 1698 -289
492 18 985 131 1450 329 813 348 1496 957 1938 1729 268 467 444 996 514 1550
22 175 32 456 23 675 -64 1624 -1120 3081 -2649 3654 -309 115 -616 190 -969
236 -118 16 -678 29 -770 19z m-2995 -1794 c-3 -5 -12 -10 -18 -10 -7 0 -6 4
3 10 19 12 23 12 15 0z m2 -66 c-3 -3 -12 -4 -19 -1 -8 3 -5 6 6 6 11 1 17 -2
13 -5z m-7 -23 c0 -6 -4 -12 -8 -15 -5 -3 -9 1 -9 9 0 8 4 15 9 15 4 0 8 -4 8
-9z m-30 -101 c0 -5 -4 -10 -10 -10 -5 0 -10 5 -10 10 0 6 5 10 10 10 6 0 10
-4 10 -10z m-76 -376 c14 -5 14 -8 1 -21 -8 -8 -19 -11 -25 -8 -5 3 -10 1 -10
-5 0 -6 -5 -8 -11 -4 -8 4 -4 11 10 18 12 7 18 15 15 19 -9 9 -1 9 20 1z m-74
-196 c0 -19 -16 -5 -17 14 -2 18 0 20 7 8 5 -8 10 -18 10 -22z m-19 -241 c-6
-8 -8 -17 -4 -20 6 -7 -12 -11 -30 -8 -4 1 -7 -4 -6 -11 1 -7 1 -20 0 -28 -1
-13 -2 -13 -11 0 -5 8 -10 10 -10 4 0 -7 -8 -15 -17 -18 -15 -6 -15 -4 2 16
21 26 77 78 83 78 3 0 -1 -6 -7 -13z m-46 -97 c3 -5 1 -10 -4 -10 -6 0 -11 5
-11 10 0 6 2 10 4 10 3 0 8 -4 11 -10z m10 -29 c3 -5 2 -12 -3 -15 -5 -3 -9 1
-9 9 0 17 3 19 12 6z m-185 -471 c0 -5 -5 -10 -11 -10 -5 0 -7 5 -4 10 3 6 8
10 11 10 2 0 4 -4 4 -10z m-106 -306 c5 -14 4 -15 -9 -4 -17 14 -19 20 -6 20
5 0 12 -7 15 -16z m-34 -42 c-8 -3 -18 -10 -22 -16 -5 -7 -8 -5 -8 6 0 18 19
29 35 20 5 -3 2 -8 -5 -10z m-100 -253 c0 -6 -4 -7 -10 -4 -5 3 -10 11 -10 16
0 6 5 7 10 4 6 -3 10 -11 10 -16z"/>
<path d="M6845 12220 c-3 -6 1 -7 9 -4 18 7 21 14 7 14 -6 0 -13 -4 -16 -10z"/>
<path d="M6830 12165 c8 -11 15 -21 16 -23 1 -2 5 5 8 15 4 9 4 14 0 10 -4 -4
-14 -1 -23 6 -14 11 -15 10 -1 -8z"/>
<path d="M6770 11920 c0 -5 5 -10 11 -10 5 0 7 5 4 10 -3 6 -8 10 -11 10 -2 0
-4 -4 -4 -10z"/>
<path d="M6720 11741 c0 -6 4 -13 10 -16 6 -3 7 1 4 9 -7 18 -14 21 -14 7z"/>
<path d="M6706 11663 c-3 -7 -2 -13 3 -13 5 0 14 6 20 13 8 10 7 14 -4 14 -8
0 -16 -6 -19 -14z"/>
<path d="M6678 11543 c7 -3 16 -2 19 1 4 3 -2 6 -13 5 -11 0 -14 -3 -6 -6z"/>
<path d="M6625 11420 c3 -5 11 -10 16 -10 6 0 7 5 4 10 -3 6 -11 10 -16 10 -6
0 -7 -4 -4 -10z"/>
<path d="M6613 11374 c0 -8 6 -14 14 -14 7 0 13 4 13 9 0 5 -6 11 -13 14 -8 3
-14 -1 -14 -9z"/>
<path d="M6555 11220 c3 -5 8 -10 11 -10 2 0 4 5 4 10 0 6 -5 10 -11 10 -5 0
-7 -4 -4 -10z"/>
<path d="M6546 11151 c-3 -5 1 -11 9 -14 9 -4 12 -1 8 9 -6 16 -10 17 -17 5z"/>
<path d="M6510 11095 c0 -6 6 -12 13 -12 8 0 14 6 14 12 0 6 -6 12 -14 12 -7
0 -13 -6 -13 -12z"/>
<path d="M6518 11056 c4 -6 7 -15 7 -20 0 -5 6 -10 13 -12 7 -1 8 0 3 2 -5 3
-7 13 -4 23 3 11 -1 18 -11 18 -8 0 -12 -5 -8 -11z"/>
<path d="M6467 10870 c-9 -11 -13 -20 -7 -20 5 0 14 9 20 20 6 11 9 20 8 20
-2 0 -11 -9 -21 -20z"/>
<path d="M6421 10824 c0 -11 3 -14 6 -6 3 7 2 16 -1 19 -3 4 -6 -2 -5 -13z"/>
<path d="M6315 10570 c-8 -13 -1 -24 14 -19 6 3 7 10 2 18 -6 10 -10 10 -16 1z"/>
<path d="M6285 10500 c-3 -5 -4 -14 0 -19 3 -6 -3 -14 -12 -20 -10 -6 -12 -11
-5 -11 6 0 15 -1 19 -2 4 -2 8 12 9 30 1 34 -1 38 -11 22z"/>
<path d="M6250 10425 c0 -9 6 -12 15 -9 8 4 15 7 15 9 0 2 -7 5 -15 9 -9 3
-15 0 -15 -9z"/>
<path d="M6189 10335 c-1 -3 -2 -8 -3 -12 -1 -5 -5 -14 -9 -20 -5 -8 -4 -13 2
-13 6 0 11 3 12 8 0 4 2 15 4 25 3 15 -3 26 -6 12z"/>
<path d="M2620 6800 c-9 -6 -10 -10 -3 -10 6 0 15 5 18 10 8 12 4 12 -15 0z"/>
<path d="M2533 6765 c0 -8 4 -15 9 -15 4 0 8 4 8 9 0 6 -4 12 -8 15 -5 3 -9
-1 -9 -9z"/>
<path d="M2410 6698 c0 -4 4 -8 9 -8 6 0 12 4 15 8 3 5 -1 9 -9 9 -8 0 -15 -4
-15 -9z"/>
<path d="M2213 6625 c0 -8 4 -15 9 -15 4 0 8 4 8 9 0 6 -4 12 -8 15 -5 3 -9
-1 -9 -9z"/>
<path d="M2176 6605 c4 -8 11 -15 16 -15 6 0 5 6 -2 15 -7 8 -14 15 -16 15 -2
0 -1 -7 2 -15z"/>
<path d="M2142 6593 c-6 -2 -10 -9 -7 -13 7 -11 35 -2 35 11 0 10 -8 10 -28 2z"/>
<path d="M2030 6529 c0 -5 5 -7 10 -4 6 3 10 8 10 11 0 2 -4 4 -10 4 -5 0 -10
-5 -10 -11z"/>
<path d="M1919 6453 c-13 -16 -12 -17 4 -4 9 7 17 15 17 17 0 8 -8 3 -21 -13z"/>
<path d="M1760 6429 c0 -5 5 -7 10 -4 6 3 10 8 10 11 0 2 -4 4 -10 4 -5 0 -10
-5 -10 -11z"/>
<path d="M1150 6279 c0 -5 5 -7 10 -4 6 3 10 8 10 11 0 2 -4 4 -10 4 -5 0 -10
-5 -10 -11z"/>
<path d="M1016 6257 c3 -10 9 -15 12 -12 3 3 0 11 -7 18 -10 9 -11 8 -5 -6z"/>
<path d="M933 6232 c0 -12 5 -22 9 -22 11 0 10 12 -2 30 -7 12 -9 10 -7 -8z"/>
<path d="M860 6231 c0 -6 4 -13 10 -16 6 -3 7 1 4 9 -7 18 -14 21 -14 7z"/>
<path d="M271 6138 c-1 -21 15 -32 25 -17 4 7 3 9 -4 5 -6 -3 -13 2 -15 11 -4
16 -5 16 -6 1z"/>
<path d="M205 6130 c-3 -5 -1 -10 4 -10 6 0 11 5 11 10 0 6 -2 10 -4 10 -3 0
-8 -4 -11 -10z"/>
<path d="M106 6117 c3 -10 9 -15 12 -12 3 3 0 11 -7 18 -10 9 -11 8 -5 -6z"/>
</g>
</svg>
